<svg xmlns="http://www.w3.org/2000/svg" width="400" height="578.733"><g fill-rule="evenodd"><path d="M260.314 252.822c-4.352.277-9.157 1.151-14.796 2.692a548.24 548.24 0 0 1-4.888 1.309c-1.206.316-3.649 1.131-5.428 1.812-1.78.681-3.833 1.429-4.563 1.662-.729.233-2.683.999-4.34 1.702s-3.828 1.578-4.825 1.944c-1.589.583-3.738 1.53-7.135 3.143-.54.256-1.086.465-1.213.465-.23 0-3.931 1.582-6.733 2.879-.796.368-1.737.739-2.091.825-.354.086-2.406.916-4.56 1.845-2.153.929-4.053 1.689-4.223 1.689-.169 0-1.808.581-3.643 1.291-1.835.711-4.204 1.566-5.266 1.901-10.371 3.275-12.601 3.919-15.199 4.391-1.061.193-3.232.635-4.825.983-10.438 2.281-13.837 2.606-27.382 2.616-15.034.011-21.718-.794-35.805-4.315-1.315-.328-2.422-.567-2.459-.53-.037.038.137 2.237.387 4.887.251 2.651.688 7.371.973 10.489.285 3.118 1.105 11.314 1.823 18.212.718 6.899 1.305 13.052 1.305 13.675 0 .982.839 9.558 2.037 20.827.558 5.242 1.511 15.218 1.926 20.145.206 2.454 1.018 10.705 1.802 18.335.785 7.63 1.498 15.012 1.584 16.405.085 1.394.367 4.542.625 6.997 1.863 17.707 2.827 27.394 2.989 30.036.129 2.101 1.166 12.452 2.802 27.985.265 2.522.589 6.104.719 7.962.129 1.857.394 4.952.588 6.876 1.888 18.75 1.928 19.026 3.547 24.111 3.252 10.22 13.886 19.889 25.061 22.787 2.56.663 5.653.933 16.875 1.473 30.542 1.47 33.252 1.493 56.212.482l13.631-.599c13.721-.599 16.221-1.111 23.281-4.766 4.861-2.517 11.262-8.706 13.663-13.211 4.223-7.924 4.336-8.444 6.219-28.468 1.031-10.962 2.372-25.185 6.529-69.24a1201456.752 1201456.752 0 0 0 10.855-115.078l2.903-30.76c.608-6.436 1.101-11.887 1.096-12.114-.021-.857-12.023-4.092-19.552-5.27-3.454-.54-15.237-.817-20.506-.482" fill="#fcdc04"/><path d="M165.742.261c-11.643.608-22.733 1.454-33.173 2.532-3.184.329-7.216.702-8.96.83-4.857.357-12.63 1.424-21.076 2.893-2.189.381-5.066.875-6.393 1.099-1.327.225-4.692.999-7.479 1.721-2.786.722-5.772 1.471-6.634 1.663-1.787.399-8.916 2.71-9.303 3.015-.14.111-.846.357-1.568.548-1.356.357-4.988 1.745-5.414 2.069-.133.101-1.218.595-2.413 1.097C51.736 22.6 44.374 31.174 43.438 40.893c-.53 5.512.411 10.247 2.712 13.631.406.597.909 1.426 1.118 1.843.415.827 5.072 5.876 5.42 5.876.118.001.77.468 1.448 1.039a35.55 35.55 0 0 0 2.053 1.611c1.59 1.108 8.874 4.83 9.453 4.83.229 0 2.26.804 4.201 1.664 2.709 1.2 14.412 4.788 17.371 5.325.928.169 3.588.721 5.91 1.227 6.157 1.342 11.669 2.386 13.872 2.626 1.062.116 3.776.498 6.032.848 12.774 1.983 25.013 3.16 44.029 4.233 26.649 1.503 53.827 1.375 77.201-.365 2.588-.192 6.984-.518 9.771-.723 7.859-.578 18.406-1.726 25.694-2.799 3.649-.536 7.526-1.066 8.616-1.177 3.114-.317 8.92-3.793 8.987-5.381.008-.195.975-1.643 1.242-1.86.314-.255 1.195-2.211 1.777-3.944 1.511-4.501.274-11.872-2.417-14.399-.326-.307-.594-.68-.594-.828 0-.379-1.956-2.256-3.059-2.934-4.775-2.938-9.151-3.621-16.055-2.507-9.803 1.582-23.069 2.82-41.32 3.858-20.241 1.151-47.879 1.152-67.551.003-20.722-1.21-31.644-2.251-42.871-4.085-2.482-.405-4.82-.737-5.196-.737-1.238 0-11.439-2.184-12.04-2.577-2.703-1.771-.143-4.901 4.008-4.901.373 0 1.748-.222 3.056-.492 4.127-.853 14.806-2.578 17.819-2.877 1.593-.159 4.253-.44 5.911-.626 39.054-4.364 82.922-4.444 124.246-.225 7.618.777 12.498 1.422 17.405 2.298 12.449 2.223 22.935 4.377 28.28 5.809 6.307 1.69 11.377 7.241 12.728 13.937.251 1.245 1.151 5.37 2 9.168.849 3.797 1.721 7.881 1.938 9.075.217 1.194.549 2.823.738 3.619 1.133 4.767 2.51 11.027 2.654 12.062.092.663.537 2.828.988 4.809.451 1.982.821 4.077.821 4.655 0 1.942-1.849 4.525-3.504 4.894-2.967.661-24.566 3.3-29.669 3.624-1.858.118-5.03.378-7.049.578-44.868 4.441-105.907 4.741-151.817.747-3.649-.318-8.752-.751-11.339-.963-7.424-.609-18.083-1.774-25.694-2.808-3.848-.523-8.087-1.051-9.42-1.173-2.615-.239-4.658-.559-16.153-2.529-16.612-2.847-18.902-3.129-23.884-2.942-7.381.277-11.944 1.605-19.009 5.531-6.306 3.504-13.142 11.714-16.172 19.422-1.198 3.047-4.505 16.903-4.505 18.875 0 .577-.28 1.904-1.602 7.594-2.759 11.873-2.825 20.699-.211 28.281 1.569 4.552 3.556 8.812 4.7 10.079.24.265.655.916.923 1.447.269.531.998 1.508 1.621 2.172.623.663 1.43 1.605 1.793 2.094a10.483 10.483 0 0 0 1.483 1.555c.452.367 1.483 1.27 2.29 2.007.807.737 1.991 1.666 2.629 2.064 3.494 2.177 5.345 3.251 5.61 3.253.164.002.977.332 1.806.734 2.072 1.004 5.449 2.056 8.038 2.504l9.762 1.698c7.351 1.281 11.194 1.886 16.767 2.64 1.46.198 7.213 1.008 12.786 1.801 5.573.792 11.382 1.557 12.908 1.699 1.526.142 5.814.633 9.529 1.091 7.023.866 18.946 2.039 27.262 2.681 59.196 4.573 99.568 4.666 154.765.357 5.108-.399 10.699-.833 12.424-.964 1.725-.132 6.769-.639 11.208-1.127 9.9-1.089 10.052-1.077 14.093 1.084 1.258.673 1.685 1.088 2.957 2.871 2.832 3.968 2.824 3.827 1.08 19.61-.799 7.234-1.576 14.67-1.726 16.526-.149 1.855-.912 9.344-1.696 16.642-.783 7.298-1.596 15.169-1.806 17.491-.21 2.322-.92 9.324-1.578 15.561-1.645 15.607-2.307 22.158-2.595 25.693-.135 1.659-.906 9.041-1.714 16.406-.808 7.364-1.569 14.855-1.691 16.646-.123 1.791-.553 6.243-.957 9.892l-1.584 14.354c-.469 4.246-.957 9.24-1.085 11.098-.128 1.858-.942 9.783-1.809 17.611-.867 7.829-1.675 15.754-1.796 17.612-.12 1.858-.335 4.3-.477 5.428-.657 5.215-2.966 26.993-3.159 29.795-.119 1.725-.493 5.579-.831 8.565-.338 2.985-.94 9.391-1.339 14.234-.744 9.04-1.265 14.432-1.701 17.611-.762 5.55-3.166 12.211-5.629 15.596-.567.779-1.156 1.65-1.309 1.936-.24.448-3.081 3.622-3.782 4.225-1.755 1.509-4.637 3.616-5.786 4.229-2.887 1.539-6.051 3.045-6.759 3.217-.398.096-1.701.466-2.895.822-3.774 1.126-9.787 2.427-13.39 2.897-1.393.181-4.379.606-6.635.944-11.872 1.778-21.657 2.232-39.927 1.853a2852.96 2852.96 0 0 0-25.814-.384c-18.191-.175-22.474-.446-30.881-1.951-5.938-1.063-14.252-3.772-16.888-5.502-.464-.305-1.71-1.07-2.769-1.701-4.123-2.456-7.682-5.758-10.701-9.93-.685-.947-1.246-1.784-1.246-1.859 0-.075-.643-1.308-1.427-2.741-2.103-3.835-4.813-12.254-5.559-17.27-.734-4.929-1.303-9.672-2.526-21.069-3.892-36.276-4.974-46.625-4.969-47.54.003-.555-.809-8.348-1.804-17.32-.995-8.971-1.809-16.791-1.809-17.378 0-.587-.815-8.407-1.81-17.378-.995-8.972-1.809-16.8-1.809-17.396 0-.597-.814-8.416-1.81-17.377-.995-8.961-1.808-16.743-1.806-17.294.001-.551-.804-8.438-1.79-17.527-.985-9.09-1.896-17.829-2.024-19.421-.128-1.593-.949-9.572-1.826-17.732-.876-8.161-2.069-19.343-2.65-24.85-1.528-14.472-2.827-17.795-8.482-21.699-7.901-5.456-19.668-1.972-24.181 7.161-1.599 3.236-1.612 4.295-.207 16.83.61 5.44 1.109 10.393 1.109 11.006 0 .613.814 8.43 1.809 17.371.995 8.94 1.809 16.755 1.809 17.367 0 .611.766 7.994 1.701 16.405.935 8.412 1.803 16.715 1.927 18.452.125 1.737.978 9.988 1.895 18.336.918 8.347 1.732 16.186 1.81 17.419.079 1.234.853 8.616 1.722 16.406.868 7.789 1.685 15.628 1.815 17.419.13 1.791.984 10.042 1.898 18.335.913 8.294 1.73 16.11 1.814 17.371.085 1.26.859 8.643 1.722 16.405.863 7.762 1.726 16.068 1.919 18.456.192 2.389.947 9.717 1.678 16.285s1.492 13.679 1.692 15.802c1.266 13.477 1.59 15.52 3.419 21.592 1.613 5.353 4.431 11.356 6.792 14.468.45.592.903 1.302 1.007 1.576.407 1.069 6.546 7.814 8.685 9.542a40.9 40.9 0 0 1 1.926 1.667c.462.434 1.439 1.171 2.171 1.638.732.466 1.568 1.083 1.858 1.369.289.287 1.755 1.214 3.257 2.06a256.46 256.46 0 0 1 4.299 2.472c.862.513 1.839.996 2.171 1.072.332.076 1.146.384 1.809.685 4.889 2.219 8.978 3.591 15.441 5.18 7.64 1.878 23.63 3.765 38.842 4.582 16.265.873 66.011.987 74.185.17 6.013-.602 11.501-1.335 15.923-2.127 2.189-.392 4.676-.818 5.525-.945 4.296-.646 13.651-3.723 18.9-6.216l3.561-1.691c.597-.284 2.051-1.114 3.232-1.845 1.181-.731 2.214-1.329 2.295-1.329.206 0 2.741-1.686 3.037-2.02.391-.44 2.001-1.598 2.222-1.598.112 0 .563-.328 1.002-.729.439-.401 1.684-1.474 2.768-2.384 2.925-2.457 6.833-6.602 9.448-10.022.797-1.042 1.63-2.126 1.853-2.41.222-.284.656-.963.965-1.51.308-.547 1.112-1.9 1.787-3.007 1.535-2.52 4.837-9.5 5.274-11.15.181-.68.617-2.106.969-3.167 1.776-5.354 2.354-8.555 3.378-18.697.328-3.251 1.197-11.422 1.931-18.157.734-6.736 1.334-12.825 1.334-13.532 0-.708.11-2.145.243-3.195.636-4.999 3.188-29.05 3.376-31.823.183-2.69 1.165-12.02 3.144-29.853.261-2.353.475-4.814.475-5.469 0-.654.269-3.614.597-6.577 2.032-18.351 2.837-26.019 3.021-28.789.115-1.725.874-9.162 1.687-16.526.814-7.364 1.588-14.747 1.72-16.405.133-1.659.83-8.553 1.55-15.32.719-6.767 1.53-14.638 1.802-17.491.272-2.853.656-6.87.854-8.926.332-3.451 1.327-12.715 2.539-23.643.272-2.455.595-5.929.717-7.72.121-1.792.426-5.103.677-7.359.655-5.878 2.837-26.862 3.4-32.69.953-9.858 3.289-12.679 12.075-14.578 6.437-1.39 13.139-3.901 16.406-6.146.862-.592 2.053-1.406 2.646-1.809s1.251-.898 1.464-1.102c.212-.203.988-.932 1.725-1.62 1.77-1.652 4.739-5.201 5.615-6.711.385-.663.979-1.594 1.32-2.068.341-.475.911-1.506 1.269-2.292 4.894-10.775 5.542-19.465 2.489-33.396-.712-3.251-1.409-6.562-1.549-7.358-2.615-14.913-5.706-24.258-9.655-29.192-.531-.664-1.179-1.586-1.439-2.051-.618-1.104-4.667-5.058-6.057-5.916-.597-.368-1.14-.74-1.206-.826-.95-1.233-5.628-3.251-12.899-5.565-8.748-2.783-11.353-5.688-13.139-14.651-.823-4.134-2.942-16.395-3.471-20.086-.2-1.394-1.024-6.128-1.832-10.521-.808-4.392-1.47-8.233-1.47-8.535 0-1.875-3.074-12.447-4.355-14.979-1.606-3.174-4.774-7.256-7.364-9.487-2.842-2.448-2.973-2.549-4.619-3.556-.874-.535-1.735-1.118-1.911-1.295-.312-.311-3.362-1.846-7.082-3.564-2.191-1.012-4.729-2.01-5.549-2.182-.332-.07-1.852-.567-3.378-1.105-3.497-1.234-6.799-2.217-8.202-2.444-.597-.097-3.887-.89-7.31-1.764-3.423-.874-7.277-1.748-8.564-1.944-1.288-.195-4.404-.734-6.925-1.198-6.062-1.115-11.961-2.022-15.213-2.339-1.452-.141-4.594-.463-6.982-.716-9.544-1.011-17.573-1.667-31.363-2.564-6.892-.448-53.681-.682-60.917-.304M53.559 134.379c4.339.44 9.059 1.249 14.354 2.458 2.919.667 6.556 1.467 8.082 1.779 5.392 1.102 24.376 3.843 29.164 4.211 1.775.136 3.947.348 4.825.47 2.604.364 12.701 1.409 19.69 2.04 10.127.913 17.509 1.346 39.687 2.331 14.424.64 46.071.64 60.555 0 26.188-1.157 35.683-1.826 51.869-3.655 3.517-.398 7.533-.831 8.927-.964 4.641-.442 12.597-1.467 18.818-2.425 3.383-.521 7.129-1.064 8.323-1.206 2.614-.311 11.863-1.843 17.853-2.958 13.723-2.554 18.498-2.512 22.427.194 2.176 1.498 4.915 5.172 5.59 7.496.154.53.557 1.745.895 2.699 1.794 5.054 2.443 15.481 1.244 19.979-1.167 4.381-4.423 7.83-9.167 9.71-4.35 1.724-5.372 1.921-20.989 4.056-17.511 2.395-20.3 2.756-21.294 2.758-.566.001-4.691.43-9.168.953-11.939 1.395-22.314 2.428-26.836 2.672-2.19.118-7.455.488-11.701.822-29.956 2.359-72.638 3.273-97.346 2.084-24.956-1.201-48.297-2.976-67.19-5.11-4.644-.524-9.584-1.063-10.977-1.196-4.345-.417-12.622-1.426-19.783-2.412-3.781-.521-8.341-1.117-10.132-1.326-14.408-1.678-22.393-3.284-24.246-4.877-1.144-.983-3.023-3.403-3.506-4.516-1.283-2.959-1.215-11.185.149-17.937 3.25-16.08 6.94-19.445 19.883-18.13m140.08 402.912c-.349.275-.635.601-.635.724 0 .412.634.23 1.164-.335.911-.97.549-1.236-.529-.389" fill="#0c0c24"/></g></svg>