<?xml version="1.0" standalone="no"?>
<!DOCTYPE svg PUBLIC "-//W3C//DTD SVG 20010904//EN"
 "http://www.w3.org/TR/2001/REC-SVG-20010904/DTD/svg10.dtd">
<svg version="1.0" xmlns="http://www.w3.org/2000/svg"
 width="984.000000pt" height="984.000000pt" viewBox="0 0 984.000000 984.000000"
 preserveAspectRatio="xMidYMid meet">
<metadata>
Created by potrace 1.14, written by Peter Selinger 2001-2017
</metadata>
<g transform="translate(0.000000,984.000000) scale(0.100000,-0.100000)"
fill="#000000" stroke="none">
<path d="M5170 9705 c-25 -7 -56 -17 -70 -23 -14 -5 -28 -10 -33 -11 -30 -4
-191 -160 -932 -901 -462 -462 -838 -840 -836 -840 2 0 -15 -15 -37 -32 -23
-18 -42 -37 -43 -43 -1 -5 -54 -59 -119 -120 -65 -60 -119 -114 -120 -120 -1
-5 -55 -59 -120 -120 -65 -60 -119 -114 -120 -120 -1 -5 -55 -59 -120 -120
-65 -60 -118 -114 -119 -120 -1 -5 -20 -23 -41 -40 -21 -16 -39 -33 -40 -36 0
-3 -83 -88 -185 -190 -165 -164 -189 -193 -225 -264 -44 -88 -50 -111 -55
-201 -6 -116 30 -229 105 -327 35 -44 121 -117 139 -117 6 0 11 -3 11 -7 0
-12 77 -40 160 -60 8 -1 47 -3 87 -4 84 0 183 30 260 80 27 17 210 193 408
391 197 198 363 360 368 360 6 0 8 2 5 5 -7 7 325 342 335 337 4 -2 7 1 7 6 0
5 34 43 75 85 41 41 75 73 75 70 0 -3 8 5 19 18 10 13 385 391 834 840 448
449 829 836 847 860 26 36 56 94 60 114 0 3 7 22 14 43 19 52 18 192 -1 256
-49 165 -159 280 -326 342 -55 20 -209 26 -267 9z"/>
<path d="M5540 8171 c-589 -600 -942 -960 -1085 -1106 -88 -89 -291 -297 -452
-461 -161 -165 -384 -393 -497 -508 -114 -116 -206 -213 -206 -216 0 -8 17
-26 324 -344 110 -115 227 -236 260 -270 32 -33 88 -92 124 -129 l65 -68 -39
-40 c-21 -22 -911 -914 -1976 -1981 -1066 -1067 -1938 -1943 -1938 -1948 0 -5
-6 -15 -14 -22 -19 -20 -49 -81 -77 -158 -19 -54 -23 -85 -23 -180 0 -121 15
-195 57 -275 12 -22 20 -43 19 -47 -1 -5 2 -8 7 -8 5 0 12 -9 16 -20 3 -10 39
-52 79 -92 80 -79 174 -136 271 -164 63 -19 230 -25 295 -11 50 11 103 28 116
38 6 5 14 6 17 2 4 -3 7 -1 7 5 0 7 6 12 12 12 7 0 37 17 67 37 49 34 3611
3589 3611 3604 0 4 5 9 10 11 6 2 87 79 180 172 l169 169 119 -124 c66 -68
153 -158 193 -200 249 -257 498 -515 584 -606 l101 -104 84 81 c228 219 490
472 550 530 37 36 154 148 260 250 106 102 223 215 261 253 38 37 74 67 81 67
6 0 9 2 6 5 -3 3 21 32 54 63 33 31 98 93 143 137 45 44 160 154 254 245 95
91 221 212 281 270 59 58 184 178 276 266 239 228 334 322 334 327 0 3 -69 73
-152 155 -329 324 -648 638 -750 738 -60 58 -108 110 -108 115 0 5 36 46 80
90 44 44 80 84 80 88 0 5 7 14 16 22 20 16 74 123 86 169 21 80 35 160 27 160
-4 0 -4 13 1 29 4 16 7 31 4 33 -2 2 -6 24 -9 48 -3 25 -8 53 -11 62 -2 9 -6
25 -8 35 -6 30 -47 114 -79 163 -64 96 -188 198 -284 234 -21 8 -47 17 -58 22
-25 9 -40 12 -85 18 -19 3 -37 5 -40 6 -12 5 -172 -5 -177 -10 -2 -1 -6 -3
-10 -4 -5 -1 -24 -6 -43 -10 -19 -5 -41 -12 -50 -16 -127 -64 -141 -74 -262
-194 l-70 -68 -40 38 c-63 61 -302 295 -581 570 l-255 251 -202 -206z m570
-1112 c41 -6 79 -14 85 -17 5 -3 22 -7 37 -9 35 -4 126 -34 193 -64 28 -12 52
-23 55 -23 3 -1 26 -13 52 -29 26 -15 51 -27 57 -27 6 0 11 -4 11 -10 0 -5 7
-10 15 -10 8 0 15 -4 15 -8 0 -5 18 -18 39 -30 22 -13 56 -37 76 -55 57 -51
165 -157 165 -163 0 -3 9 -15 21 -27 32 -34 139 -197 139 -212 0 -7 3 -15 8
-17 19 -8 117 -273 106 -289 -3 -5 -1 -9 3 -9 5 0 9 -8 10 -17 1 -10 3 -29 7
-43 25 -114 25 -355 0 -480 -1 -8 -3 -15 -4 -15 -1 0 -3 -11 -5 -25 -4 -21
-12 -59 -14 -67 -1 -2 -2 -6 -2 -10 -1 -5 -6 -19 -11 -33 -5 -14 -11 -32 -13
-41 -2 -9 -13 -37 -24 -62 -12 -25 -21 -53 -21 -61 0 -8 -4 -16 -8 -18 -5 -1
-24 -32 -43 -68 -35 -67 -85 -142 -129 -195 -41 -48 -177 -185 -184 -185 -4 0
-17 -9 -29 -21 -12 -11 -49 -38 -82 -59 -33 -22 -65 -43 -70 -47 -6 -4 -17 -9
-25 -11 -8 -2 -16 -8 -18 -13 -2 -5 -8 -9 -14 -9 -6 0 -34 -11 -63 -25 -61
-28 -187 -72 -230 -79 -16 -2 -31 -5 -32 -6 -2 -2 -12 -4 -23 -5 -11 -1 -21
-4 -22 -5 -3 -3 -35 -6 -133 -14 -38 -3 -72 -6 -75 -7 -3 -1 -9 -1 -13 0 -5 1
-45 4 -90 6 -45 3 -97 7 -116 10 -54 8 -193 42 -226 56 -16 7 -36 13 -42 15
-34 7 -198 93 -272 143 -76 50 -235 196 -286 261 -43 55 -92 127 -115 173 -14
26 -28 47 -32 47 -5 0 -8 8 -8 18 0 10 -4 22 -9 28 -20 21 -90 223 -97 279 -1
11 -5 31 -9 45 -11 47 -17 135 -18 250 0 128 3 158 37 316 10 50 62 185 94
249 20 39 35 73 34 78 -1 4 3 7 8 7 6 0 10 6 10 14 0 8 4 16 8 18 4 2 19 21
32 43 34 56 123 160 192 225 66 62 227 179 246 180 6 0 12 5 12 12 0 6 3 8 6
5 4 -4 19 2 33 11 14 10 46 26 71 36 25 10 52 22 60 26 9 4 31 11 50 15 19 4
40 11 45 15 6 5 24 11 40 13 17 3 41 8 55 11 63 15 80 17 150 23 41 3 76 6 78
8 6 5 185 -6 252 -16z"/>
<path d="M5684 6435 c-56 -17 -122 -52 -164 -86 l-34 -29 -58 57 -58 57 -60
-59 c-33 -33 -60 -65 -60 -70 0 -6 23 -33 50 -60 28 -27 50 -53 50 -58 0 -4
-11 -20 -25 -35 -32 -34 -87 -146 -90 -184 -1 -16 -4 -31 -7 -34 -9 -9 3 -138
14 -151 6 -7 7 -13 4 -13 -4 0 -1 -10 6 -22 7 -13 12 -26 11 -29 -1 -3 25 -36
58 -73 32 -37 59 -64 59 -60 0 4 11 -3 25 -16 14 -13 25 -20 25 -16 0 4 10 1
23 -6 30 -16 41 -18 117 -22 63 -3 160 20 184 44 6 6 15 10 22 10 7 0 40 16
74 35 34 19 68 35 75 35 7 0 24 -12 37 -27 13 -16 61 -63 105 -106 l82 -78
-27 -10 c-40 -16 -115 -4 -160 25 l-40 25 -36 -42 c-42 -49 -36 -41 -111 -139
-33 -43 -63 -78 -67 -78 -4 0 -8 -6 -8 -14 0 -17 72 -59 139 -82 41 -14 161
-21 201 -11 34 8 67 20 107 38 24 10 47 19 53 19 5 0 10 3 10 8 0 4 16 16 35
26 19 11 35 23 35 28 0 23 35 0 104 -69 l77 -77 65 65 66 66 -81 80 -80 81 25
29 c115 132 143 343 64 491 -35 66 -111 139 -180 171 -54 26 -70 29 -138 26
-42 -1 -86 -5 -97 -8 -37 -10 -155 -54 -160 -59 -3 -3 -35 -20 -71 -38 l-65
-34 -85 85 c-46 46 -84 87 -84 90 0 23 135 9 152 -16 4 -5 9 -7 11 -5 19 23
177 242 186 259 11 20 8 23 -46 48 -67 31 -189 39 -259 18z m-60 -472 c83 -84
83 -94 6 -96 -67 -2 -115 49 -111 117 1 25 16 56 27 56 1 0 37 -35 78 -77z
m581 -212 c18 -2 65 -48 65 -63 0 -8 3 -18 7 -22 10 -9 11 -66 1 -66 -4 0 -5
-9 -3 -20 2 -11 0 -20 -5 -20 -5 0 -12 -10 -15 -21 -6 -19 -18 -11 -106 77
-106 106 -108 114 -40 131 30 8 60 9 96 4z"/>
<path d="M9288 5655 c-2 -2 -19 -6 -38 -8 -19 -2 -44 -7 -55 -11 -37 -13 -126
-61 -145 -78 -11 -10 -21 -18 -22 -18 -5 0 -2288 -2284 -2289 -2290 -1 -3 -36
-36 -79 -75 -43 -38 -79 -74 -80 -80 -2 -5 -74 -77 -160 -160 -86 -82 -158
-153 -159 -156 0 -3 -36 -41 -78 -85 -79 -80 -90 -95 -117 -149 -36 -70 -48
-124 -51 -212 -3 -78 1 -105 22 -165 14 -40 36 -86 49 -104 13 -17 24 -34 24
-38 0 -20 151 -145 171 -142 3 1 12 -4 20 -10 49 -40 219 -58 319 -34 56 13
157 59 181 82 8 7 33 30 57 50 23 21 41 38 40 38 -2 0 638 642 1422 1428 784
786 1434 1444 1443 1463 10 19 21 41 26 49 67 117 65 295 -4 439 -28 58 -121
157 -184 196 -67 42 -148 66 -233 70 -42 2 -78 2 -80 0z"/>
</g>
</svg>
